<svg viewBox="0 0 20 20" fill="currentColor" xmlns="http://www.w3.org/2000/svg"><path fill-rule="evenodd" clip-rule="evenodd" d="M10 20C4.4875 20 0 15.5125 0 10C0 4.4875 4.4875 0 10 0C15.5125 0 20 4.4875 20 10C20 15.5125 15.5125 20 10 20ZM18.4338 11.3688C18.1413 11.2763 15.79 10.575 13.1125 11.0038C14.23 14.0738 14.685 16.5738 14.7725 17.0938C16.6888 15.7975 18.0525 13.7438 18.435 11.3688H18.4338ZM13.3375 17.875C13.21 17.125 12.7125 14.515 11.5125 11.4L11.4575 11.4175C6.64 13.0963 4.9125 16.4375 4.7575 16.75C6.205 17.8813 8.025 18.555 10 18.555C11.1838 18.555 12.3125 18.3125 13.3375 17.8763V17.875ZM3.65375 15.725C3.8475 15.3925 6.19125 11.5125 10.5975 10.0875C10.71 10.05 10.8225 10.0175 10.935 9.9875C10.7188 9.5 10.485 9.015 10.2413 8.5375C5.975 9.8125 1.8375 9.75875 1.4625 9.75L1.45875 10.01C1.45875 12.2038 2.29 14.2075 3.65375 15.7225V15.725ZM1.6375 8.2625C2.02125 8.26875 5.54 8.28375 9.535 7.2225C8.12 4.7075 6.59375 2.59125 6.36875 2.2825C3.97875 3.41 2.19375 5.6125 1.63875 8.26375L1.6375 8.2625ZM8 1.71C8.235 2.02625 9.7875 4.13875 11.185 6.71C14.2225 5.5725 15.51 3.84375 15.6625 3.625C14.1538 2.28375 12.17 1.47 10 1.47C9.3125 1.47 8.64125 1.5525 8 1.7075V1.71ZM16.6125 4.6125C16.4313 4.855 15 6.69 11.8425 7.98C12.0425 8.38625 12.23 8.8 12.4088 9.2175C12.4713 9.36375 12.5338 9.51125 12.5925 9.6575C15.435 9.3 18.2588 9.8725 18.54 9.9325C18.5213 7.91625 17.8025 6.065 16.6113 4.61125L16.6125 4.6125Z" fill="currentColor"></path></svg>